
<svg xmlns="http://www.w3.org/2000/svg" viewBox="0 0 74 40">
  <path d="M43.094,19.313c0.246,0,0.489,0.014,0.73,0.033c-0.437-0.728-1.227-1.221-2.136-1.221 c-0.877,0-1.614-0.568-1.884-1.354c-0.727,0.208-1.425,0.482-2.089,0.816c0.062,0.017,0.122,0.038,0.188,0.038c1.104,0,2,0.896,2,2 c0,0.096-0.015,0.188-0.028,0.281C40.875,19.524,41.959,19.313,43.094,19.313z"/>
  <path d="M60.462,28.016c-0.002-0.009-5.175-21.365-5.175-21.365C54.926,4.303,52.694,0,46.688,0 c-0.829,0-1.5,0.671-1.5,1.5s0.671,1.5,1.5,1.5c4.856,0,5.575,3.729,5.639,4.143l4.767,19.701h-2.073 c-0.445-3.557-2.453-6.628-5.305-8.522c-0.897,0.379-1.529,1.269-1.529,2.303c0,0.088-0.015,0.171-0.026,0.256 c1.991,1.358,3.415,3.489,3.829,5.965c0.082,0.488,0.135,0.987,0.135,1.5c0,0.512-0.053,1.012-0.135,1.5 c-0.716,4.271-4.421,7.53-8.896,7.53c-4.475,0-8.181-3.259-8.896-7.53c-0.082-0.488-0.135-0.988-0.135-1.5 c0-0.513,0.053-1.012,0.135-1.5c0.147-0.879,0.427-1.712,0.808-2.484c-1.034-0.077-1.852-0.932-1.852-1.984 c0-0.189-0.077-0.357-0.192-0.488c-0.938,1.469-1.569,3.149-1.795,4.957h-1.82c-0.741-5.927-5.802-10.531-11.927-10.531 S6.235,20.917,5.493,26.844H3.42L8.187,7.143C8.25,6.729,8.97,3,13.826,3c0.829,0,1.5-0.671,1.5-1.5S14.655,0,13.826,0 C7.82,0,5.588,4.303,5.227,6.651c0,0-5.173,21.356-5.175,21.365c-0.266,1.109,0.531,1.826,1.426,1.826 c0.012,0,0.023,0.004,0.036,0.004h3.982c0.079,0.629,0.215,1.237,0.387,1.831c0.059-0.106,0.102-0.224,0.102-0.354 c0-1.104,0.896-2,2-2c0.166,0,0.324,0.024,0.478,0.062c-0.043-0.343-0.074-0.688-0.074-1.042c0-0.512,0.053-1.011,0.135-1.5 c0.715-4.271,4.421-7.531,8.896-7.531s8.18,3.26,8.896,7.531c0.082,0.489,0.135,0.988,0.135,1.5s-0.053,1.012-0.135,1.5 c-0.715,4.272-4.421,7.531-8.896,7.531c-2.022,0-3.883-0.67-5.386-1.794c-0.35,0.302-0.8,0.491-1.299,0.491 c-0.413,0-0.749,0.336-0.749,0.748c0,0.289-0.065,0.563-0.176,0.812c2.075,1.708,4.722,2.743,7.614,2.743 c6.125,0,11.185-4.604,11.927-10.529h1.814c0.742,5.926,5.802,10.529,11.927,10.529s11.186-4.604,11.927-10.529H59 c0.012,0,0.023-0.005,0.036-0.005C59.931,29.842,60.728,29.125,60.462,28.016z"/>
</svg>
