<svg xmlns="http://www.w3.org/2000/svg" xmlns:xlink="http://www.w3.org/1999/xlink"><symbol id="htmlacademy" viewBox="0 0 27 34"><path d="M13.643.016L13.5 0 0 1.407v24.606L13.5 34 27 26.013V1.407L13.643.016zm11.591 25L13.5 31.956 1.766 25.015V14.93l11.685 6.916.02 1.253-8.017-4.743-.011 1.225 8.046 4.809.02 1.286-8.045-4.758-.01 1.226L13.5 26.95l8.124-4.833V16.91l3.62-2.15-.01 10.256zm0-11.564l-3.22 1.88-1.482.875-7.065-4.187-.011 1.225 6.04 3.573-.053.031-.13.076-.86.492-4.986-2.948-.011 1.225 3.936 2.328-.933.61-.021.012-2.971-1.742-.011 1.225 1.947 1.135-1.988 1.186-11.618-6.872 11.638-6.958 11.8 6.834zm0-1.225L13.44 5.31 1.766 12.22V2.99L13.5 1.764 25.234 2.99v9.237z"/></symbol><symbol id="icon-contrast" viewBox="0 0 16 16"><path d="M8 2a6 6 0 110 12A6 6 0 018 2zm0-2a8 8 0 100 16A8 8 0 008 0zm0 12.145a4.26 4.26 0 000-8.5"/></symbol><symbol id="icon-crop" viewBox="0 0 22 22"><path d="M16 14h2V6a2 2 0 00-2-2H8v2h8v8zM6 16V0H4v4H0v2h4v10a2 2 0 002 2h10v4h2v-4h4v-2H6z"/></symbol><symbol id="icon-facebook" viewBox="0 0 8.673 18.944"><path d="M6.275 3.357h2.398V0H5.795C2.656.181 1.54 2.387 1.948 6.115H0v3.517h1.958v9.312h3.837V9.632h2.857V6.115H5.786c-.021-1.045-.036-2.406.489-2.758z"/></symbol><symbol id="icon-fill" viewBox="0 0 24 22"><path d="M16.56 9.148L7.62 0 6.205 1.448l2.38 2.435L3.44 9.148a1.558 1.558 0 000 2.169l5.5 5.628a1.48 1.48 0 002.12 0l5.5-5.628a1.558 1.558 0 000-2.169zM5.205 10.233L10 5.33l4.795 4.902h-9.59zM19 11.767s-2 2.216-2 3.582c0 .543.21 1.063.586 1.447.375.384.884.6 1.414.6.53 0 1.04-.216 1.414-.6A2.07 2.07 0 0021 15.349c0-1.366-2-3.582-2-3.582zm5 8.698H0V22h24v-1.535z"/></symbol><symbol id="icon-heart" viewBox="521.939 473.064 12.545 11.99"><path d="M528.174 485.055a.737.737 0 01-.552-.249c-3.798-4.324-4.644-5.298-4.858-5.572h-.004a3.866 3.866 0 01-.821-2.373 3.803 3.803 0 013.799-3.799c.934 0 1.804.32 2.484.898a3.847 3.847 0 012.463-.898 3.803 3.803 0 013.799 3.799c0 .909-.318 1.754-.896 2.381l-4.86 5.561a.735.735 0 01-.554.252zm-4.245-6.706c.208.255 2.471 2.839 4.243 4.858l4.323-4.944c.34-.369.52-.86.52-1.399a2.333 2.333 0 00-2.33-2.331c-.729 0-1.421.344-1.9.943a.76.76 0 01-.585.275.727.727 0 01-.575-.294 2.333 2.333 0 00-1.887-.925 2.333 2.333 0 00-2.33 2.331c0 .678.275 1.171.507 1.467l.014.019z"/></symbol><symbol id="icon-twitter" viewBox="0 0 17.5 14.663"><path fill-rule="evenodd" clip-rule="evenodd" d="M11.283.153c1.736-.485 3.074.263 3.685 1.151.694-.226 1.372-.47 2.072-.691-.004.841-.538 1.478-.883 1.727.704.166 1.343-.48 1.343-.48-.175.976-1.035 1.746-1.611 1.977-.239 6.592-3.272 10.956-10.382 10.823h-.46c-.422 0-4.29-.45-5.047-1.843 2.341.192 4.011-.412 4.835-1.15-.989-.293-2.761-.464-3.07-2.881.362.105.583.223 1.228.117C1.757 8.067.385 7.366.461 5.218c.294.32 1.1.523 1.381.461C1.117 5.444-.188 2.398.921.843 2.794 2.654 4.769 4.364 8.29 4.528 8.506 2.288 9.461.787 11.283.153z"/></symbol><symbol id="icon-youtube" viewBox="0 0 14.64 13.96"><path d="M1.775 13.78C.799 14.257 0 13.758 0 12.671V1.29C0 .202.799-.295 1.775.181l12.133 5.932c.975.478.975 1.258 0 1.736L1.775 13.78z"/></symbol><symbol id="logo-diacritic" viewBox="90 5 10 10"><path d="M98.498 9.875a3.623 3.623 0 01-3.623-3.624 3.625 3.625 0 01-3.625 3.624 3.625 3.625 0 013.625 3.624 3.623 3.623 0 013.623-3.624z"/></symbol><symbol id="logo-glasses" viewBox="0 0 74 40"><path d="M60.462 28.016L55.287 6.651C54.926 4.303 52.694 0 46.688 0a1.5 1.5 0 100 3c4.856 0 5.575 3.729 5.639 4.143l4.767 19.701h-2.073c-.742-5.927-5.802-10.531-11.927-10.531s-11.186 4.604-11.927 10.531h-1.82c-.741-5.927-5.802-10.531-11.927-10.531S6.235 20.917 5.493 26.844H3.42L8.187 7.143C8.25 6.729 8.97 3 13.826 3a1.5 1.5 0 100-3C7.82 0 5.588 4.303 5.227 6.651L.052 28.016c-.266 1.109.531 1.826 1.426 1.826.012 0 .023.004.036.004h3.982c.741 5.926 5.802 10.53 11.927 10.53s11.185-4.604 11.927-10.53h1.814c.742 5.926 5.802 10.53 11.927 10.53s11.186-4.604 11.927-10.53H59c.012 0 .023-.004.036-.004.895 0 1.692-.717 1.426-1.826zm-34.147 1.828c-.715 4.272-4.421 7.531-8.896 7.531-4.475 0-8.18-3.259-8.896-7.531-.082-.488-.135-.988-.135-1.5s.053-1.011.135-1.5c.715-4.271 4.421-7.531 8.896-7.531 4.475 0 8.18 3.26 8.896 7.531.082.489.135.988.135 1.5s-.053 1.011-.135 1.5zm25.675 0c-.716 4.272-4.421 7.531-8.896 7.531-4.475 0-8.181-3.259-8.896-7.531-.082-.488-.135-.988-.135-1.5s.053-1.011.135-1.5c.716-4.271 4.421-7.531 8.896-7.531 4.475 0 8.181 3.26 8.896 7.531.082.489.135.988.135 1.5s-.053 1.011-.135 1.5z"/></symbol><symbol id="logo-pink" viewBox="0 0 74 23"><path d="M0 1.449C0 .741.58.161 1.256.161h7.18c5.087 0 8.436 2.704 8.436 7.147v.064c0 4.861-4.057 7.373-8.854 7.373H2.544v6.825c0 .708-.58 1.288-1.288 1.288C.58 22.859 0 22.279 0 21.571V1.449zm8.114 10.979c3.734 0 6.182-1.996 6.182-4.958v-.065c0-3.22-2.415-4.894-6.054-4.894H2.544v9.917h5.57zm13.615-11.14C21.729.58 22.308 0 22.983 0c.709 0 1.288.58 1.288 1.288v20.283c0 .708-.579 1.288-1.288 1.288-.676 0-1.255-.58-1.255-1.288V1.288zm9.141.032c0-.676.579-1.256 1.256-1.256h.354c.58 0 .934.29 1.288.74l13.684 17.45V1.256A1.256 1.256 0 0148.707 0c.676 0 1.223.58 1.223 1.256v20.348c0 .676-.482 1.191-1.158 1.191h-.129c-.548 0-.934-.322-1.32-.772L33.349 4.153v17.45c0 .676-.547 1.256-1.255 1.256-.677 0-1.224-.58-1.224-1.256V1.32zm25.43-.032C56.3.58 56.879 0 57.556 0c.708 0 1.287.58 1.287 1.288v12.331L71.689.451c.29-.258.58-.451.999-.451.676 0 1.224.612 1.224 1.256 0 .354-.161.644-.419.901l-7.984 7.92 8.564 10.561c.225.29.354.547.354.934 0 .676-.579 1.288-1.287 1.288-.483 0-.806-.258-1.03-.58l-8.403-10.463-4.862 4.861v4.894c0 .708-.579 1.288-1.287 1.288-.677 0-1.256-.58-1.256-1.288V1.288z"/></symbol><symbol id="logo-starred-glasses" viewBox="0 0 74 40"><path d="M43.094 19.313c.246 0 .489.014.73.033a2.491 2.491 0 00-2.136-1.221 1.994 1.994 0 01-1.884-1.354c-.727.208-1.425.482-2.089.816.062.017.122.038.188.038a2 2 0 012 2c0 .096-.015.188-.028.281 1-.382 2.084-.593 3.219-.593z"/><path d="M60.462 28.016L55.287 6.651C54.926 4.303 52.694 0 46.688 0a1.5 1.5 0 100 3c4.856 0 5.575 3.729 5.639 4.143l4.767 19.701h-2.073c-.445-3.557-2.453-6.628-5.305-8.522a2.503 2.503 0 00-1.529 2.303c0 .088-.015.171-.026.256a9.034 9.034 0 013.829 5.965c.082.488.135.987.135 1.5 0 .512-.053 1.012-.135 1.5-.716 4.271-4.421 7.53-8.896 7.53-4.475 0-8.181-3.259-8.896-7.53a9.035 9.035 0 01-.135-1.5c0-.513.053-1.012.135-1.5a8.945 8.945 0 01.808-2.484 1.994 1.994 0 01-1.852-1.984.739.739 0 00-.192-.488 11.95 11.95 0 00-1.795 4.957h-1.82c-.741-5.927-5.802-10.531-11.927-10.531S6.235 20.917 5.493 26.844H3.42L8.187 7.143C8.25 6.729 8.97 3 13.826 3a1.5 1.5 0 100-3C7.82 0 5.588 4.303 5.227 6.651L.052 28.016c-.266 1.109.531 1.826 1.426 1.826.012 0 .023.004.036.004h3.982c.079.629.215 1.237.387 1.831a.726.726 0 00.102-.354 2 2 0 012-2c.166 0 .324.024.478.062a8.337 8.337 0 01-.074-1.042c0-.512.053-1.011.135-1.5.715-4.271 4.421-7.531 8.896-7.531s8.18 3.26 8.896 7.531c.082.489.135.988.135 1.5s-.053 1.012-.135 1.5c-.715 4.272-4.421 7.531-8.896 7.531a8.959 8.959 0 01-5.386-1.794c-.35.302-.8.491-1.299.491a.75.75 0 00-.749.748c0 .289-.065.563-.176.812a11.94 11.94 0 007.614 2.743c6.125 0 11.185-4.604 11.927-10.529h1.814c.742 5.926 5.802 10.529 11.927 10.529s11.186-4.604 11.927-10.529H59c.012 0 .023-.005.036-.005.895.002 1.692-.715 1.426-1.824z"/></symbol><symbol id="logo-stars" viewBox="0 0 100 40"><path d="M50.92 15.917a4.577 4.577 0 01-1.729-.335 4.516 4.516 0 01-1.466-.96 4.43 4.43 0 01-.98-1.44 4.37 4.37 0 01-.344-1.699 4.406 4.406 0 01-1.328 3.136 4.56 4.56 0 01-3.192 1.298 4.57 4.57 0 013.193 1.304 4.416 4.416 0 011.327 3.14c0-1.18.476-2.31 1.323-3.143a4.56 4.56 0 013.196-1.301zm-12.846 3.466a2.786 2.786 0 01-1.953-.796 2.692 2.692 0 01-.809-1.92c0 .719-.29 1.408-.805 1.917a2.786 2.786 0 01-1.947.799c.73 0 1.43.285 1.946.792.516.508.806 1.196.806 1.913a2.693 2.693 0 01.813-1.913 2.787 2.787 0 011.95-.792zM10.785 33.64a2.786 2.786 0 01-1.94-.802 2.692 2.692 0 01-.802-1.913c0 .719-.29 1.408-.805 1.917a2.786 2.786 0 01-1.947.799c.73.002 1.43.29 1.947.798.515.51.805 1.199.805 1.917 0-.717.288-1.404.802-1.913a2.786 2.786 0 011.94-.802z"/></symbol></svg>